<svg version="1.1" id="Capa_1" xmlns="http://www.w3.org/2000/svg" xmlns:xlink="http://www.w3.org/1999/xlink" x="0px" y="0px"
	 viewBox="0 0 448.4 237.7" style="enable-background:new 0 0 448.4 237.7;" xml:space="preserve">
<style type="text/css">
	.st0{fill:#DF040B;}
	.st1{fill:#1F140F;}
</style>
<g>
	<path class="st0" d="M0.1,0.1v108.2c0,0,8,45.8,72,46s76.2-40.2,76.2-46.8s0-107.5,0-107.5H81.5v96.4c0,0-0.9,4.8-7.4,4.8
		S67.4,96,67.4,96V0H0.1V0.1z"/>
	<polygon points="195.4,0.1 215.2,57.7 235.9,0.1 347.7,0.1 347.7,34.6 371.2,0.1 448.4,0.1 396.4,76.9 448.4,153.9 370.9,153.9 
		347.4,119.6 347.4,153.9 276.9,153.9 276.9,77.7 249.7,153.9 181,153.9 127.2,0.1 	"/>
	<polygon points="0,237.1 2.9,192.5 18.8,192.5 24.5,212.1 30.9,192.5 46.6,192.5 48.7,237.1 35.5,237.1 34.7,218 28.9,236.3 
		18.7,236.3 14.1,220.6 12.9,237.1 	"/>
	<path d="M65.1,192.5H79v27.1c0,0-0.1,6.2,5,6.2c5.2,0,4.9-6.3,4.9-6.3v-27.1h13.6l-0.2,27c0,0,0.2,18.1-18.5,18.1
		S65.1,219.8,65.1,217S65.1,192.5,65.1,192.5z"/>
	<path class="st1" d="M119.9,192.5"/>
	<polygon points="119.9,237.1 149.4,237.1 149.4,224.6 133.7,224.6 133.7,192.5 119.9,192.5 	"/>
	<polygon points="155.3,192.5 190.5,192.5 190.5,205.1 179.8,205.1 179.8,237.1 165.9,237.1 165.9,205 155.3,205 	"/>
	<rect x="205" y="192.5" width="13.7" height="44.6"/>
	<path d="M270.9,195l-3.2,11.5c0,0-8.9-5.6-16,0s-3.5,26.7,16.2,16.6l2.3,11.8c0,0-11.2,6.2-25,0s-10.4-24.8-10.4-24.8
		s1.4-10,11.6-15.5S269.2,193.1,270.9,195z"/>
	<rect x="285.7" y="192.5" width="13.7" height="44.6"/>
	<polygon points="316.9,192.5 316.9,237.1 329.9,237.1 329.9,216.6 341.4,237.1 354.5,237.1 354.5,192.5 341.3,192.5 341.3,210.2 
		330.9,192.5 	"/>
	<polygon points="371.9,192.5 371.9,237.1 402,237.1 402,225 385.7,225 385.7,220.3 400.1,220.3 400.1,208.1 385.6,208.1 
		385.6,204.6 401,204.6 401,192.5 	"/>
	<path d="M447.1,195l-3.5,12c0,0-4.5-2.9-8.2-3.1s-8,1.5-1.5,3.9s12.9,5.1,14.1,12.4s-2.7,11.2-2.7,11.2s-5.7,6-12.3,6
		c-6.5,0-11.3,0.1-17.1-3.7l3-12c0,0,11.2,6.4,15.3,2.6s-11.7-2.5-16.7-13.9S427.7,185.5,447.1,195z"/>
</g>
</svg>